<?xml version="1.0" encoding="utf-8"?>
<!-- Generator: Adobe Illustrator 25.4.1, SVG Export Plug-In . SVG Version: 6.00 Build 0)  -->
<svg version="1.1" id="Layer_1" xmlns="http://www.w3.org/2000/svg" xmlns:xlink="http://www.w3.org/1999/xlink" x="0px" y="0px"
	 viewBox="0 0 200 86.9" style="enable-background:new 0 0 200 86.9;" xml:space="preserve">
<style type="text/css">
	.st0{fill:#808184;}
	.st1{fill:#F6EB18;}
</style>
<g id="logo_x5F_in-1_1">
	<g id="Group">
		<path id="Vector" class="st0" d="M112.9,33.3c0.1,0,0.2-0.1,0.3-0.1c0.1,0,0.3,0.1,0.4,0.2c0.1,0.1,0.1,0.2,0.1,0.4
			c0,0.3-0.1,0.4-0.3,0.5c-0.4,0.2-0.9,0.4-1.4,0.6c-0.5,0.2-1.1,0.2-1.8,0.2c-0.7,0-1.3-0.1-1.9-0.3s-1.1-0.6-1.6-1
			c-0.9-0.9-1.4-2.1-1.4-3.7c0-1.6,0.5-2.8,1.4-3.7c0.9-0.9,2.1-1.3,3.5-1.3c0.7,0,1.3,0.1,1.8,0.3c0.5,0.2,0.9,0.3,1.2,0.5
			c0.3,0.1,0.4,0.3,0.5,0.4c0.1,0.1,0.1,0.2,0.1,0.3c0,0.1-0.1,0.3-0.1,0.4c-0.1,0.1-0.2,0.2-0.4,0.2c-0.1,0-0.2,0-0.3-0.1
			c-0.4-0.2-0.8-0.4-1.2-0.5c-0.4-0.1-0.9-0.2-1.5-0.2c-0.6,0-1.1,0.1-1.6,0.3c-0.5,0.2-0.9,0.5-1.2,0.8c-0.6,0.7-1,1.6-1,2.7
			c0,1.1,0.3,2,1,2.7c0.7,0.7,1.6,1.1,2.8,1.1c0.6,0,1-0.1,1.4-0.2C112.2,33.7,112.5,33.5,112.9,33.3z"/>
		<path id="Vector_2" class="st0" d="M117,33.4c0.4,0.4,1,0.6,1.7,0.6c0.7,0,1.3-0.1,1.8-0.4c0.2-0.1,0.3-0.1,0.4-0.1
			c0.1,0,0.2,0.1,0.4,0.1c0.1,0.1,0.2,0.2,0.2,0.4c0,0.2-0.1,0.4-0.3,0.5c-0.2,0.1-0.4,0.2-0.5,0.3c-0.2,0.1-0.3,0.1-0.5,0.2
			c-0.4,0.1-0.9,0.2-1.5,0.2c-1.2,0-2.1-0.3-2.7-1c-0.6-0.7-1-1.6-1-2.8c0-1,0.3-1.9,0.8-2.6c0.6-0.8,1.5-1.2,2.6-1.2
			c1,0,1.9,0.4,2.5,1.1c0.6,0.7,0.9,1.5,0.9,2.5c0,0.2-0.1,0.3-0.2,0.4c-0.1,0.1-0.3,0.2-0.5,0.2h-4.8
			C116.3,32.6,116.5,33.1,117,33.4z M118.3,28.8c-0.8,0-1.4,0.4-1.8,1.1c-0.1,0.3-0.2,0.6-0.2,1h4.1c0-0.7-0.3-1.2-0.7-1.6
			C119.3,29,118.8,28.8,118.3,28.8z"/>
		<path id="Vector_3" class="st0" d="M127.1,28.9c-0.8,0-1.6,0.4-2.3,1.3v4.2c0,0.2-0.1,0.3-0.2,0.4c-0.1,0.1-0.3,0.2-0.5,0.2
			s-0.3-0.1-0.4-0.2c-0.1-0.1-0.2-0.3-0.2-0.4v-6.1c0-0.2,0.1-0.3,0.2-0.5c0.1-0.1,0.3-0.2,0.4-0.2c0.2,0,0.3,0.1,0.5,0.2
			c0.1,0.1,0.2,0.3,0.2,0.5V29c0.4-0.4,0.7-0.7,1-0.8c0.5-0.3,1-0.5,1.5-0.5c0.5,0,0.9,0.1,1.2,0.2c0.3,0.1,0.6,0.3,0.8,0.6
			c0.4,0.5,0.7,1.2,0.7,1.9v4c0,0.2-0.1,0.3-0.2,0.4c-0.1,0.1-0.3,0.2-0.5,0.2s-0.3-0.1-0.4-0.2c-0.1-0.1-0.2-0.3-0.2-0.4v-3.9
			c0-0.5-0.1-1-0.4-1.3C128.1,29.1,127.7,28.9,127.1,28.9z"/>
		<path id="Vector_4" class="st0" d="M134.8,34.1c0.2,0,0.4,0,0.5-0.1c0.1,0,0.2-0.1,0.4-0.1s0.2,0.1,0.4,0.1
			c0.1,0.1,0.1,0.2,0.1,0.4c0,0.2-0.1,0.3-0.3,0.4c-0.4,0.2-0.7,0.3-1,0.3s-0.5,0-0.8,0c-0.2,0-0.5-0.1-0.7-0.2
			c-0.5-0.3-0.8-0.8-0.8-1.6V29h-1c-0.2,0-0.3-0.1-0.3-0.3c0-0.1,0-0.2,0.1-0.2l1.9-1.9c0.1-0.1,0.2-0.1,0.2-0.1s0.1,0,0.2,0.1
			c0.1,0.1,0.1,0.1,0.1,0.2v1.1h1.6c0.2,0,0.3,0.1,0.4,0.1c0.1,0.1,0.1,0.2,0.1,0.4c0,0.2-0.1,0.3-0.1,0.4c-0.1,0.1-0.2,0.1-0.4,0.1
			H134v4.3c0,0.4,0.1,0.6,0.3,0.7C134.4,34,134.6,34.1,134.8,34.1z"/>
		<path id="Vector_5" class="st0" d="M139,29c0.7-0.9,1.4-1.3,2.2-1.3h0.1c0.2,0,0.3,0.1,0.4,0.2c0.1,0.1,0.2,0.3,0.2,0.5
			c0,0.2-0.1,0.3-0.2,0.4c-0.1,0.1-0.3,0.2-0.5,0.2h-0.1c-0.5,0-0.9,0.1-1.3,0.3c-0.4,0.2-0.7,0.5-0.9,0.9v4.3
			c0,0.2-0.1,0.3-0.2,0.4c-0.1,0.1-0.3,0.2-0.5,0.2s-0.3-0.1-0.4-0.2c-0.1-0.1-0.2-0.3-0.2-0.4v-6.1c0-0.2,0.1-0.3,0.2-0.5
			c0.1-0.1,0.3-0.2,0.4-0.2c0.2,0,0.3,0.1,0.5,0.2c0.1,0.1,0.2,0.3,0.2,0.5L139,29L139,29z"/>
		<path id="Vector_6" class="st0" d="M146.5,27.7c1.1,0,2,0.3,2.6,1c0.7,0.7,1,1.6,1,2.7c0,1.1-0.3,2-1,2.7c-0.7,0.7-1.5,1-2.6,1
			c-1.1,0-2-0.3-2.6-1c-0.7-0.7-1-1.6-1-2.7c0-1.1,0.3-2,1-2.7C144.6,28.1,145.4,27.7,146.5,27.7z M145,33.4
			c0.2,0.2,0.5,0.4,0.7,0.4c0.3,0.1,0.5,0.1,0.8,0.1c0.3,0,0.5,0,0.8-0.1c0.3-0.1,0.5-0.2,0.7-0.4c0.5-0.5,0.8-1.1,0.8-2
			c0-0.8-0.3-1.5-0.8-2c-0.4-0.4-1-0.6-1.6-0.6c-1,0-1.7,0.4-2.1,1.4c-0.1,0.3-0.2,0.7-0.2,1.2c0,0.5,0.1,0.9,0.2,1.2
			C144.6,33,144.7,33.2,145,33.4z"/>
		<path id="Vector_7" class="st0" d="M157.2,28.8c0.7-0.7,1.5-1.1,2.4-1.1c0.9,0,1.7,0.3,2.3,1c0.7,0.7,1.1,1.6,1.1,2.8
			c0,1.1-0.4,2.1-1.1,2.8c-0.7,0.6-1.4,1-2.4,1c-0.9,0-1.7-0.4-2.4-1.1v3.6c0,0.2-0.1,0.3-0.2,0.5c-0.1,0.1-0.3,0.2-0.4,0.2
			c-0.2,0-0.3-0.1-0.5-0.2c-0.1-0.1-0.2-0.3-0.2-0.5v-9.3c0-0.2,0.1-0.3,0.2-0.4c0.1-0.1,0.3-0.2,0.5-0.2c0.2,0,0.3,0.1,0.4,0.2
			c0.1,0.1,0.2,0.3,0.2,0.4L157.2,28.8L157.2,28.8z M157.2,32.9c0.6,0.7,1.4,1.1,2.2,1.1c1.1,0,1.8-0.5,2.1-1.4
			c0.1-0.3,0.2-0.7,0.2-1.1c0-0.8-0.2-1.4-0.7-1.9c-0.4-0.4-1-0.6-1.7-0.6c-0.8,0-1.6,0.4-2.2,1.1V32.9z"/>
		<path id="Vector_8" class="st0" d="M165.2,28.2c0.8-0.3,1.6-0.5,2.4-0.5c1,0,1.7,0.3,2.2,0.9c0.5,0.5,0.7,1.1,0.7,1.9v4
			c0,0.2-0.1,0.3-0.2,0.4c-0.1,0.1-0.3,0.2-0.5,0.2c-0.2,0-0.3-0.1-0.4-0.2c-0.1-0.1-0.2-0.3-0.2-0.4v-0.4c-0.3,0.3-0.6,0.5-1,0.7
			c-0.4,0.2-1,0.3-1.6,0.3c-0.7,0-1.2-0.2-1.6-0.6c-0.4-0.4-0.7-0.9-0.7-1.6c0-0.7,0.3-1.2,0.8-1.6c0.6-0.4,1.4-0.7,2.4-0.7h1.7
			v-0.1c0-0.6-0.1-1.1-0.5-1.3c-0.3-0.3-0.8-0.4-1.4-0.4c-0.5,0-1.2,0.1-1.9,0.3c-0.1,0-0.2,0-0.3,0c-0.1,0-0.2-0.1-0.3-0.1
			c-0.1-0.1-0.1-0.2-0.1-0.5C164.8,28.5,165,28.3,165.2,28.2z M165.6,32.9c0,0.7,0.5,1.1,1.5,1.1c0.4,0,0.9-0.1,1.2-0.3
			c0.4-0.2,0.7-0.5,0.9-0.7v-1.2h-1.5c-0.7,0-1.2,0.1-1.6,0.3C165.8,32.2,165.6,32.5,165.6,32.9z"/>
		<path id="Vector_9" class="st0" d="M174.2,29c0.7-0.9,1.4-1.3,2.2-1.3h0.1c0.2,0,0.3,0.1,0.4,0.2c0.1,0.1,0.2,0.3,0.2,0.5
			c0,0.2-0.1,0.3-0.2,0.4c-0.1,0.1-0.3,0.2-0.5,0.2h-0.1c-0.5,0-0.9,0.1-1.3,0.3c-0.4,0.2-0.7,0.5-0.9,0.9v4.3
			c0,0.2-0.1,0.3-0.2,0.4c-0.1,0.1-0.3,0.2-0.5,0.2s-0.3-0.1-0.4-0.2c-0.1-0.1-0.2-0.3-0.2-0.4v-6.1c0-0.2,0.1-0.3,0.2-0.5
			c0.1-0.1,0.3-0.2,0.4-0.2c0.2,0,0.3,0.1,0.5,0.2c0.1,0.1,0.2,0.3,0.2,0.5L174.2,29L174.2,29z"/>
		<path id="Vector_10" class="st0" d="M178.8,28.2c0.8-0.3,1.6-0.5,2.4-0.5c1,0,1.7,0.3,2.2,0.9c0.5,0.5,0.7,1.1,0.7,1.9v4
			c0,0.2-0.1,0.3-0.2,0.4c-0.1,0.1-0.3,0.2-0.5,0.2c-0.2,0-0.3-0.1-0.4-0.2c-0.1-0.1-0.2-0.3-0.2-0.4v-0.4c-0.3,0.3-0.6,0.5-1,0.7
			c-0.4,0.2-1,0.3-1.6,0.3c-0.7,0-1.2-0.2-1.6-0.6c-0.4-0.4-0.7-0.9-0.7-1.6c0-0.7,0.3-1.2,0.8-1.6c0.6-0.4,1.4-0.7,2.4-0.7h1.7
			v-0.1c0-0.6-0.1-1.1-0.5-1.3c-0.3-0.3-0.8-0.4-1.4-0.4c-0.5,0-1.2,0.1-1.9,0.3c-0.1,0-0.2,0-0.3,0s-0.2-0.1-0.3-0.1
			c-0.1-0.1-0.1-0.2-0.1-0.5C178.4,28.5,178.5,28.3,178.8,28.2z M179.2,32.9c0,0.7,0.5,1.1,1.5,1.1c0.4,0,0.9-0.1,1.2-0.3
			c0.4-0.2,0.7-0.5,0.9-0.7v-1.2h-1.5c-0.7,0-1.2,0.1-1.6,0.3C179.4,32.2,179.2,32.5,179.2,32.9z"/>
		<path id="Vector_11" class="st0" d="M191.9,33.4c0.4,0.4,1,0.6,1.7,0.6c0.7,0,1.3-0.1,1.8-0.4c0.2-0.1,0.3-0.1,0.4-0.1
			c0.1,0,0.2,0.1,0.4,0.1c0.1,0.1,0.2,0.2,0.2,0.4c0,0.2-0.1,0.4-0.3,0.5c-0.2,0.1-0.4,0.2-0.5,0.3c-0.2,0.1-0.3,0.1-0.5,0.2
			c-0.4,0.1-0.9,0.2-1.5,0.2c-1.2,0-2.1-0.3-2.7-1c-0.6-0.7-1-1.6-1-2.8c0-1,0.3-1.9,0.8-2.6c0.6-0.8,1.5-1.2,2.6-1.2
			c1,0,1.9,0.4,2.5,1.1c0.6,0.7,0.9,1.5,0.9,2.5c0,0.2-0.1,0.3-0.2,0.4c-0.1,0.1-0.3,0.2-0.5,0.2h-4.8
			C191.2,32.6,191.5,33.1,191.9,33.4z M193.2,28.8c-0.8,0-1.4,0.4-1.8,1.1c-0.1,0.3-0.2,0.6-0.2,1h4.2c0-0.7-0.3-1.2-0.7-1.6
			C194.2,29,193.7,28.8,193.2,28.8z"/>
		<path id="Vector_12" class="st0" d="M198.7,24.9c0.1-0.1,0.3-0.2,0.5-0.2c0.2,0,0.3,0.1,0.5,0.2c0.1,0.1,0.2,0.3,0.2,0.5v9.2
			c0,0.2-0.1,0.3-0.2,0.4c-0.1,0.1-0.3,0.2-0.5,0.2c-0.2,0-0.3-0.1-0.5-0.2c-0.1-0.1-0.2-0.3-0.2-0.4v-9.2
			C198.6,25.2,198.6,25,198.7,24.9z"/>
		<path id="Vector_13" class="st0" d="M106.4,41.9v2.8h3.9c0.1,0,0.3,0.1,0.4,0.1c0.1,0.1,0.2,0.2,0.2,0.4c0,0.1-0.1,0.3-0.2,0.4
			c-0.1,0.1-0.2,0.1-0.4,0.1h-3.9v3.4c0,0.2-0.1,0.3-0.2,0.4c-0.1,0.1-0.2,0.2-0.4,0.2c-0.2,0-0.3-0.1-0.4-0.2
			c-0.1-0.1-0.2-0.2-0.2-0.4v-7.7c0-0.2,0.1-0.3,0.2-0.4c0.1-0.1,0.2-0.2,0.4-0.2h4.9c0.1,0,0.3,0.1,0.4,0.1
			c0.1,0.1,0.2,0.2,0.2,0.4c0,0.1-0.1,0.3-0.2,0.4c-0.1,0.1-0.2,0.1-0.4,0.1H106.4z"/>
		<path id="Vector_14" class="st0" d="M115.5,43c1,0,1.8,0.3,2.4,0.9c0.6,0.6,0.9,1.4,0.9,2.4c0,1-0.3,1.8-0.9,2.4
			c-0.6,0.6-1.4,0.9-2.4,0.9c-1,0-1.8-0.3-2.4-0.9c-0.6-0.6-0.9-1.4-0.9-2.4c0-1,0.3-1.8,0.9-2.4C113.7,43.3,114.5,43,115.5,43z
			 M114.1,48.2c0.2,0.2,0.4,0.3,0.7,0.4c0.2,0.1,0.5,0.1,0.7,0.1c0.2,0,0.5,0,0.7-0.1c0.2-0.1,0.5-0.2,0.7-0.4
			c0.4-0.4,0.7-1,0.7-1.8c0-0.8-0.2-1.3-0.7-1.8c-0.4-0.3-0.8-0.5-1.4-0.5c-0.9,0-1.6,0.4-1.9,1.2c-0.1,0.3-0.2,0.7-0.2,1.1
			c0,0.4,0.1,0.8,0.2,1.1C113.7,47.8,113.9,48,114.1,48.2z"/>
		<path id="Vector_15" class="st0" d="M121.6,44.2c0.6-0.8,1.3-1.2,2-1.2h0.1c0.2,0,0.3,0.1,0.4,0.2c0.1,0.1,0.2,0.2,0.2,0.4
			c0,0.2-0.1,0.3-0.2,0.4c-0.1,0.1-0.2,0.1-0.4,0.1h-0.1c-0.4,0-0.8,0.1-1.1,0.3c-0.3,0.2-0.6,0.5-0.8,0.8v3.8
			c0,0.2-0.1,0.3-0.2,0.4c-0.1,0.1-0.2,0.2-0.4,0.2c-0.2,0-0.3-0.1-0.4-0.2c-0.1-0.1-0.2-0.2-0.2-0.4v-5.4c0-0.2,0.1-0.3,0.2-0.4
			c0.1-0.1,0.2-0.2,0.4-0.2c0.2,0,0.3,0.1,0.4,0.2c0.1,0.1,0.2,0.2,0.2,0.4L121.6,44.2L121.6,44.2z"/>
		<path id="Vector_16" class="st0" d="M127.8,48.7c0.2,0,0.4,0,0.5-0.1c0.1,0,0.2-0.1,0.3-0.1c0.1,0,0.2,0,0.3,0.1
			c0.1,0.1,0.1,0.2,0.1,0.4c0,0.2-0.1,0.3-0.3,0.4c-0.4,0.2-0.7,0.3-0.9,0.3c-0.3,0-0.5,0-0.7,0c-0.2,0-0.4-0.1-0.6-0.2
			c-0.5-0.3-0.7-0.7-0.7-1.4v-3.9H125c-0.2,0-0.2-0.1-0.2-0.2c0-0.1,0-0.1,0.1-0.2l1.7-1.7c0.1-0.1,0.1-0.1,0.2-0.1
			c0.1,0,0.1,0,0.2,0.1c0,0.1,0.1,0.1,0.1,0.2v1h1.4c0.1,0,0.3,0.1,0.4,0.1c0.1,0.1,0.1,0.2,0.1,0.4c0,0.1-0.1,0.3-0.1,0.4
			c-0.1,0.1-0.2,0.1-0.4,0.1h-1.4V48c0,0.3,0.1,0.5,0.3,0.7C127.4,48.7,127.6,48.7,127.8,48.7z"/>
		<path id="Vector_17" class="st0" d="M130.7,43.5c0.7-0.3,1.4-0.4,2.2-0.4c0.9,0,1.5,0.3,2,0.8c0.4,0.4,0.6,1,0.6,1.7v3.6
			c0,0.2-0.1,0.3-0.2,0.4c-0.1,0.1-0.2,0.2-0.4,0.2c-0.2,0-0.3-0.1-0.4-0.2c-0.1-0.1-0.2-0.2-0.2-0.4v-0.3c-0.2,0.2-0.5,0.4-0.9,0.7
			c-0.4,0.2-0.9,0.3-1.5,0.3c-0.6,0-1.1-0.2-1.5-0.5c-0.4-0.4-0.6-0.8-0.6-1.4c0-0.6,0.2-1.1,0.7-1.5c0.5-0.4,1.3-0.6,2.2-0.6h1.5
			v-0.1c0-0.6-0.1-1-0.4-1.2c-0.3-0.2-0.7-0.4-1.3-0.4c-0.5,0-1,0.1-1.7,0.3c-0.1,0-0.1,0-0.2,0s-0.2,0-0.3-0.1
			c-0.1-0.1-0.1-0.2-0.1-0.4C130.4,43.7,130.5,43.6,130.7,43.5z M131.1,47.7c0,0.7,0.4,1,1.3,1c0.4,0,0.8-0.1,1.1-0.3
			c0.3-0.2,0.6-0.4,0.8-0.7v-1.1H133c-0.6,0-1.1,0.1-1.4,0.2C131.3,47.1,131.1,47.4,131.1,47.7z"/>
		<path id="Vector_18" class="st0" d="M137.9,40.5c0.1-0.1,0.2-0.2,0.4-0.2c0.2,0,0.3,0.1,0.4,0.2c0.1,0.1,0.2,0.2,0.2,0.4v8.2
			c0,0.2-0.1,0.3-0.2,0.4c-0.1,0.1-0.2,0.2-0.4,0.2c-0.2,0-0.3-0.1-0.4-0.2c-0.1-0.1-0.2-0.2-0.2-0.4v-8.2
			C137.7,40.7,137.8,40.6,137.9,40.5z"/>
		<path id="Vector_19" class="st0" d="M142.5,48.2c0.4,0.3,0.9,0.5,1.5,0.5c0.7,0,1.2-0.1,1.6-0.3c0.1-0.1,0.3-0.1,0.4-0.1
			c0.1,0,0.2,0,0.3,0.1c0.1,0.1,0.1,0.2,0.1,0.3c0,0.2-0.1,0.4-0.3,0.5s-0.3,0.2-0.5,0.2c-0.1,0.1-0.3,0.1-0.5,0.2
			c-0.4,0.1-0.8,0.2-1.3,0.2c-1,0-1.8-0.3-2.4-0.9c-0.6-0.6-0.9-1.4-0.9-2.5c0-0.9,0.2-1.7,0.7-2.3c0.5-0.7,1.3-1,2.3-1
			c1,0,1.7,0.3,2.2,1c0.5,0.6,0.8,1.3,0.8,2.2c0,0.2-0.1,0.3-0.1,0.4c-0.1,0.1-0.2,0.2-0.4,0.2h-4.3
			C141.9,47.4,142.2,47.8,142.5,48.2z M143.7,44c-0.7,0-1.3,0.3-1.6,1c-0.1,0.2-0.2,0.5-0.2,0.8h3.7c0-0.6-0.3-1.1-0.7-1.4
			C144.6,44.2,144.2,44,143.7,44z"/>
		<path id="Vector_20" class="st0" d="M151.5,48.7c0.5,0,0.9-0.1,1.3-0.4c0.1-0.1,0.3-0.1,0.4-0.1c0.1,0,0.2,0.1,0.3,0.2
			c0.1,0.1,0.1,0.2,0.1,0.4c0,0.1-0.1,0.3-0.3,0.4c-0.6,0.4-1.3,0.6-2,0.6c-0.9,0-1.7-0.3-2.4-0.9c-0.7-0.6-1-1.4-1-2.5
			c0-1,0.3-1.9,1-2.5c0.6-0.6,1.4-0.9,2.4-0.9c0.5,0,0.9,0.1,1.3,0.2c0.3,0.1,0.6,0.3,0.8,0.4c0.2,0.1,0.3,0.3,0.3,0.4
			c0,0.1,0,0.3-0.1,0.4c-0.1,0.1-0.2,0.2-0.3,0.2c-0.1,0-0.3,0-0.4-0.1c-0.4-0.2-0.9-0.4-1.3-0.4c-0.7,0-1.3,0.2-1.7,0.6
			c-0.4,0.4-0.6,1-0.6,1.6c0,0.7,0.2,1.2,0.6,1.6C150.2,48.5,150.7,48.7,151.5,48.7z"/>
		<path id="Vector_21" class="st0" d="M156.6,41.2c0,0.2-0.1,0.3-0.2,0.4c-0.1,0.1-0.3,0.2-0.4,0.2h-0.1c-0.2,0-0.3-0.1-0.4-0.2
			c-0.1-0.1-0.2-0.3-0.2-0.4v-0.1c0-0.2,0.1-0.3,0.2-0.4c0.1-0.1,0.3-0.2,0.4-0.2h0.1c0.2,0,0.3,0.1,0.4,0.2
			C156.6,40.8,156.6,41,156.6,41.2L156.6,41.2z M155.5,43.3c0.1-0.1,0.2-0.2,0.4-0.2c0.2,0,0.3,0.1,0.4,0.2c0.1,0.1,0.2,0.2,0.2,0.4
			v5.4c0,0.2-0.1,0.3-0.2,0.4c-0.1,0.1-0.2,0.2-0.4,0.2c-0.2,0-0.3-0.1-0.4-0.2c-0.1-0.1-0.2-0.2-0.2-0.4v-5.4
			C155.4,43.5,155.4,43.4,155.5,43.3z"/>
		<path id="Vector_22" class="st0" d="M159.9,44.2c0.5-0.8,1.2-1.2,2.1-1.2c0.4,0,0.9,0.1,1.2,0.4c0.3,0.2,0.5,0.5,0.7,0.9
			c0.2-0.4,0.5-0.6,0.7-0.8c0.5-0.3,1-0.5,1.6-0.5c0.7,0,1.2,0.3,1.6,0.8c0.3,0.4,0.5,1,0.5,1.6v3.6c0,0.2-0.1,0.3-0.2,0.4
			c-0.1,0.1-0.2,0.2-0.4,0.2c-0.1,0-0.3-0.1-0.4-0.2c-0.1-0.1-0.2-0.2-0.2-0.4v-3.4c0-0.5-0.1-0.9-0.3-1.2c-0.2-0.3-0.5-0.4-1-0.4
			c-0.7,0-1.3,0.4-1.8,1.2v3.8c0,0.2-0.1,0.3-0.2,0.4c-0.1,0.1-0.2,0.2-0.4,0.2c-0.2,0-0.3-0.1-0.4-0.2c-0.1-0.1-0.2-0.2-0.2-0.4
			v-3.4c0-0.5-0.1-0.9-0.3-1.2c-0.2-0.3-0.5-0.4-1-0.4c-0.7,0-1.3,0.4-1.8,1.2v3.8c0,0.2-0.1,0.3-0.2,0.4c-0.1,0.1-0.2,0.2-0.4,0.2
			s-0.3-0.1-0.4-0.2c-0.1-0.1-0.2-0.2-0.2-0.4v-5.4c0-0.2,0.1-0.3,0.2-0.4c0.1-0.1,0.2-0.2,0.4-0.2s0.3,0.1,0.4,0.2
			c0.1,0.1,0.2,0.2,0.2,0.4L159.9,44.2L159.9,44.2z"/>
		<path id="Vector_23" class="st0" d="M171.8,41.2c0,0.2-0.1,0.3-0.2,0.4c-0.1,0.1-0.3,0.2-0.4,0.2H171c-0.2,0-0.3-0.1-0.4-0.2
			c-0.1-0.1-0.2-0.3-0.2-0.4v-0.1c0-0.2,0.1-0.3,0.2-0.4c0.1-0.1,0.3-0.2,0.4-0.2h0.1c0.2,0,0.3,0.1,0.4,0.2
			C171.7,40.8,171.8,41,171.8,41.2L171.8,41.2z M170.7,43.3c0.1-0.1,0.2-0.2,0.4-0.2c0.2,0,0.3,0.1,0.4,0.2c0.1,0.1,0.2,0.2,0.2,0.4
			v5.4c0,0.2-0.1,0.3-0.2,0.4c-0.1,0.1-0.2,0.2-0.4,0.2c-0.2,0-0.3-0.1-0.4-0.2c-0.1-0.1-0.2-0.2-0.2-0.4v-5.4
			C170.5,43.5,170.5,43.4,170.7,43.3z"/>
		<path id="Vector_24" class="st0" d="M175.3,48.2c0.4,0.3,0.9,0.5,1.5,0.5c0.7,0,1.2-0.1,1.6-0.3c0.1-0.1,0.3-0.1,0.4-0.1
			c0.1,0,0.2,0,0.3,0.1c0.1,0.1,0.1,0.2,0.1,0.3c0,0.2-0.1,0.4-0.3,0.5c-0.2,0.1-0.3,0.2-0.5,0.2c-0.1,0.1-0.3,0.1-0.5,0.2
			c-0.4,0.1-0.8,0.2-1.3,0.2c-1,0-1.9-0.3-2.4-0.9c-0.6-0.6-0.9-1.4-0.9-2.5c0-0.9,0.2-1.7,0.7-2.3c0.5-0.7,1.3-1,2.3-1
			c0.9,0,1.7,0.3,2.2,1c0.5,0.6,0.8,1.3,0.8,2.2c0,0.2-0.1,0.3-0.2,0.4c-0.1,0.1-0.2,0.2-0.4,0.2h-4.3
			C174.7,47.4,174.9,47.8,175.3,48.2z M176.5,44c-0.7,0-1.3,0.3-1.6,1c-0.1,0.2-0.2,0.5-0.2,0.8h3.7c0-0.6-0.2-1.1-0.7-1.4
			C177.3,44.2,176.9,44,176.5,44z"/>
		<path id="Vector_25" class="st0" d="M184.4,44.1c-0.7,0-1.4,0.4-2.1,1.2v3.8c0,0.2-0.1,0.3-0.2,0.4c-0.1,0.1-0.3,0.2-0.4,0.2
			c-0.2,0-0.3-0.1-0.4-0.2c-0.1-0.1-0.2-0.2-0.2-0.4v-5.4c0-0.2,0.1-0.3,0.2-0.4c0.1-0.1,0.2-0.2,0.4-0.2c0.1,0,0.3,0.1,0.4,0.2
			c0.1,0.1,0.2,0.2,0.2,0.4v0.5c0.3-0.4,0.6-0.6,0.9-0.7c0.5-0.3,0.9-0.4,1.4-0.4c0.4,0,0.8,0.1,1.1,0.2c0.3,0.1,0.5,0.3,0.7,0.5
			c0.4,0.5,0.6,1,0.6,1.7v3.6c0,0.2-0.1,0.3-0.2,0.4c-0.1,0.1-0.2,0.2-0.4,0.2s-0.3-0.1-0.4-0.2c-0.1-0.1-0.2-0.2-0.2-0.4v-3.5
			c0-0.5-0.1-0.9-0.3-1.1C185.2,44.2,184.9,44.1,184.4,44.1z"/>
		<path id="Vector_26" class="st0" d="M191.3,48.7c0.2,0,0.4,0,0.5-0.1c0.1,0,0.2-0.1,0.3-0.1c0.1,0,0.2,0,0.3,0.1
			c0.1,0.1,0.1,0.2,0.1,0.4c0,0.2-0.1,0.3-0.3,0.4c-0.4,0.2-0.7,0.3-0.9,0.3c-0.3,0-0.5,0-0.7,0c-0.2,0-0.4-0.1-0.6-0.2
			c-0.5-0.3-0.7-0.7-0.7-1.4v-3.9h-0.9c-0.2,0-0.2-0.1-0.2-0.2c0-0.1,0-0.1,0.1-0.2l1.7-1.7c0.1-0.1,0.1-0.1,0.2-0.1
			c0.1,0,0.1,0,0.2,0.1c0,0.1,0.1,0.1,0.1,0.2v1h1.4c0.1,0,0.3,0.1,0.4,0.1c0.1,0.1,0.1,0.2,0.1,0.4c0,0.1-0.1,0.3-0.1,0.4
			s-0.2,0.1-0.4,0.1h-1.4V48c0,0.3,0.1,0.5,0.3,0.7C190.9,48.7,191.1,48.7,191.3,48.7z"/>
		<path id="Vector_27" class="st0" d="M196.8,43c1,0,1.8,0.3,2.4,0.9c0.6,0.6,0.9,1.4,0.9,2.4c0,1-0.3,1.8-0.9,2.4
			c-0.6,0.6-1.4,0.9-2.4,0.9c-1,0-1.8-0.3-2.4-0.9c-0.6-0.6-0.9-1.4-0.9-2.4c0-1,0.3-1.8,0.9-2.4C195,43.3,195.8,43,196.8,43z
			 M195.3,48.2c0.2,0.2,0.4,0.3,0.7,0.4c0.2,0.1,0.5,0.1,0.7,0.1c0.2,0,0.5,0,0.7-0.1c0.2-0.1,0.5-0.2,0.7-0.4
			c0.4-0.4,0.7-1,0.7-1.8c0-0.8-0.2-1.3-0.7-1.8c-0.4-0.3-0.8-0.5-1.4-0.5c-0.9,0-1.6,0.4-1.9,1.2c-0.1,0.3-0.2,0.7-0.2,1.1
			c0,0.4,0.1,0.8,0.2,1.1C195,47.8,195.2,48,195.3,48.2z"/>
		<path id="Vector_28" class="st0" d="M109.5,61.9c-0.5,0.5-1.1,0.8-1.7,0.8c-0.7,0-1.2-0.2-1.7-0.7c-0.5-0.5-0.8-1.2-0.8-2
			c0-0.8,0.3-1.5,0.8-2c0.5-0.5,1-0.7,1.7-0.7c0.7,0,1.2,0.3,1.7,0.8v-2.5c0-0.1,0-0.2,0.1-0.3c0.1-0.1,0.2-0.1,0.3-0.1
			c0.1,0,0.2,0,0.3,0.1c0.1,0.1,0.1,0.2,0.1,0.3v6.6c0,0.1,0,0.2-0.1,0.3c-0.1,0.1-0.2,0.1-0.3,0.1c-0.1,0-0.2,0-0.3-0.1
			c-0.1-0.1-0.1-0.2-0.1-0.3V61.9z M109.5,59c-0.5-0.5-1-0.8-1.6-0.8c-0.8,0-1.3,0.4-1.5,1c-0.1,0.2-0.1,0.5-0.1,0.8
			c0,0.6,0.2,1,0.5,1.4c0.3,0.3,0.7,0.5,1.2,0.5c0.6,0,1.2-0.3,1.6-0.8L109.5,59L109.5,59z"/>
		<path id="Vector_29" class="st0" d="M113.3,61.5c0.3,0.3,0.7,0.4,1.2,0.4c0.5,0,1-0.1,1.3-0.3c0.1-0.1,0.2-0.1,0.3-0.1
			c0.1,0,0.2,0,0.3,0.1c0.1,0.1,0.1,0.2,0.1,0.3c0,0.2-0.1,0.3-0.2,0.4c-0.1,0.1-0.3,0.1-0.4,0.2c-0.1,0.1-0.2,0.1-0.4,0.1
			c-0.3,0.1-0.7,0.1-1.1,0.1c-0.8,0-1.5-0.2-1.9-0.7c-0.5-0.5-0.7-1.1-0.7-2c0-0.7,0.2-1.4,0.6-1.9c0.4-0.6,1.1-0.8,1.8-0.8
			c0.8,0,1.4,0.3,1.8,0.8c0.4,0.5,0.6,1.1,0.6,1.8c0,0.1,0,0.2-0.1,0.3c-0.1,0.1-0.2,0.1-0.3,0.1h-3.5
			C112.8,60.8,113,61.2,113.3,61.5z M114.3,58.1c-0.6,0-1,0.3-1.3,0.8c-0.1,0.2-0.2,0.4-0.2,0.7h3c0-0.5-0.2-0.9-0.5-1.1
			C115,58.2,114.7,58.1,114.3,58.1z"/>
		<path id="Vector_30" class="st0" d="M121,55.3c0.1-0.1,0.2-0.1,0.3-0.1c0.1,0,0.2,0,0.3,0.1c0.1,0.1,0.1,0.2,0.1,0.3v6.6
			c0,0.1,0,0.2-0.1,0.3c-0.1,0.1-0.2,0.1-0.3,0.1c-0.1,0-0.2,0-0.3-0.1c-0.1-0.1-0.1-0.2-0.1-0.3v-6.6
			C120.9,55.5,120.9,55.3,121,55.3z"/>
		<path id="Vector_31" class="st0" d="M123.8,57.7c0.6-0.2,1.2-0.4,1.8-0.4c0.7,0,1.2,0.2,1.6,0.6c0.3,0.4,0.5,0.8,0.5,1.4v2.9
			c0,0.1,0,0.2-0.1,0.3c-0.1,0.1-0.2,0.1-0.3,0.1c-0.1,0-0.2,0-0.3-0.1c-0.1-0.1-0.1-0.2-0.1-0.3v-0.3c-0.2,0.2-0.4,0.4-0.7,0.5
			c-0.3,0.2-0.7,0.2-1.2,0.2c-0.5,0-0.9-0.1-1.2-0.4c-0.3-0.3-0.5-0.7-0.5-1.1c0-0.5,0.2-0.9,0.6-1.2c0.4-0.3,1-0.5,1.8-0.5h1.2
			v-0.1c0-0.4-0.1-0.8-0.3-1c-0.2-0.2-0.6-0.3-1-0.3c-0.4,0-0.8,0.1-1.4,0.2c-0.1,0-0.1,0-0.2,0c-0.1,0-0.1,0-0.2-0.1
			c-0.1-0.1-0.1-0.2-0.1-0.3C123.6,57.9,123.6,57.8,123.8,57.7z M124.1,61.1c0,0.5,0.4,0.8,1.1,0.8c0.3,0,0.6-0.1,0.9-0.2
			c0.3-0.1,0.5-0.3,0.7-0.5v-0.9h-1.1c-0.5,0-0.9,0.1-1.1,0.2C124.3,60.6,124.1,60.8,124.1,61.1z"/>
		<path id="Vector_32" class="st0" d="M134.5,61.8c1.2,0,1.8-0.4,1.8-1.2c0-0.3-0.2-0.6-0.7-0.8c-0.2-0.1-0.4-0.1-0.7-0.2
			c-0.3-0.1-0.5-0.1-0.8-0.2c-0.3-0.1-0.5-0.2-0.8-0.3c-0.3-0.1-0.5-0.2-0.7-0.4c-0.4-0.3-0.7-0.8-0.7-1.3c0-0.6,0.2-1.1,0.7-1.5
			c0.5-0.4,1.1-0.6,2-0.6c0.7,0,1.4,0.1,2,0.3c0.2,0.1,0.3,0.2,0.3,0.4c0,0.1,0,0.2-0.1,0.3c-0.1,0.1-0.1,0.1-0.2,0.1
			c-0.1,0-0.2,0-0.4-0.1c-0.4-0.1-1-0.2-1.5-0.2c-0.5,0-1,0.1-1.3,0.3c-0.4,0.2-0.5,0.5-0.5,0.9c0,0.4,0.2,0.7,0.7,0.9
			c0.2,0.1,0.4,0.2,0.7,0.2c0.3,0.1,0.5,0.1,0.8,0.2c0.3,0.1,0.5,0.1,0.8,0.2c0.3,0.1,0.5,0.2,0.7,0.4c0.4,0.3,0.7,0.8,0.7,1.4
			c0,0.6-0.2,1.1-0.7,1.4c-0.5,0.4-1.1,0.6-1.9,0.6c-0.9,0-1.7-0.2-2.4-0.5c-0.1,0-0.1-0.1-0.2-0.2s-0.1-0.2-0.1-0.3
			c0-0.1,0-0.2,0.1-0.3c0.1-0.1,0.2-0.1,0.3-0.1s0.2,0,0.4,0.1c0.1,0.1,0.4,0.1,0.7,0.2C133.6,61.8,134,61.8,134.5,61.8z"/>
		<path id="Vector_33" class="st0" d="M140.8,57.3c0.8,0,1.4,0.2,1.9,0.7c0.5,0.5,0.7,1.2,0.7,2c0,0.8-0.2,1.5-0.7,2
			c-0.5,0.5-1.1,0.7-1.9,0.7c-0.8,0-1.4-0.2-1.9-0.7c-0.5-0.5-0.7-1.1-0.7-2c0-0.8,0.2-1.5,0.7-2C139.4,57.6,140,57.3,140.8,57.3z
			 M139.7,61.5c0.2,0.1,0.3,0.3,0.5,0.3c0.2,0.1,0.4,0.1,0.6,0.1c0.2,0,0.4,0,0.6-0.1c0.2-0.1,0.4-0.2,0.5-0.3
			c0.4-0.3,0.5-0.8,0.5-1.5c0-0.6-0.2-1.1-0.5-1.4c-0.3-0.3-0.7-0.4-1.1-0.4c-0.7,0-1.3,0.3-1.5,1c-0.1,0.2-0.1,0.5-0.1,0.9
			c0,0.3,0.1,0.6,0.1,0.9C139.4,61.1,139.5,61.3,139.7,61.5z"/>
		<path id="Vector_34" class="st0" d="M147.3,61.8c0.4,0,0.7-0.1,1.1-0.3c0.1-0.1,0.2-0.1,0.3-0.1s0.2,0,0.3,0.1
			c0.1,0.1,0.1,0.2,0.1,0.3c0,0.1-0.1,0.2-0.2,0.3c-0.5,0.3-1,0.5-1.6,0.5c-0.7,0-1.4-0.2-1.9-0.7c-0.5-0.5-0.8-1.2-0.8-2
			c0-0.8,0.3-1.5,0.8-2c0.5-0.5,1.2-0.7,1.9-0.7c0.4,0,0.7,0.1,1,0.2c0.3,0.1,0.5,0.2,0.6,0.3c0.1,0.1,0.2,0.2,0.2,0.3
			c0,0.1,0,0.2-0.1,0.3c-0.1,0.1-0.1,0.1-0.2,0.1c-0.1,0-0.2,0-0.4-0.1c-0.4-0.2-0.7-0.3-1.1-0.3c-0.6,0-1.1,0.2-1.4,0.5
			c-0.3,0.3-0.5,0.8-0.5,1.3c0,0.5,0.2,1,0.5,1.3C146.2,61.7,146.7,61.8,147.3,61.8z"/>
		<path id="Vector_35" class="st0" d="M151.5,55.8c0,0.1-0.1,0.3-0.1,0.4c-0.1,0.1-0.2,0.1-0.4,0.1h-0.1c-0.1,0-0.3-0.1-0.4-0.1
			c-0.1-0.1-0.1-0.2-0.1-0.4v0c0-0.1,0.1-0.3,0.1-0.4c0.1-0.1,0.2-0.1,0.4-0.1h0.1c0.1,0,0.3,0.1,0.4,0.1
			C151.4,55.5,151.5,55.6,151.5,55.8L151.5,55.8z M150.6,57.5c0.1-0.1,0.2-0.1,0.3-0.1s0.2,0,0.3,0.1c0.1,0.1,0.1,0.2,0.1,0.3v4.4
			c0,0.1,0,0.2-0.1,0.3c-0.1,0.1-0.2,0.1-0.3,0.1s-0.2,0-0.3-0.1c-0.1-0.1-0.1-0.2-0.1-0.3v-4.4C150.5,57.7,150.5,57.6,150.6,57.5z"
			/>
		<path id="Vector_36" class="st0" d="M154.3,61.5c0.3,0.3,0.7,0.4,1.2,0.4c0.5,0,1-0.1,1.3-0.3c0.1-0.1,0.2-0.1,0.3-0.1
			s0.2,0,0.3,0.1c0.1,0.1,0.1,0.2,0.1,0.3c0,0.2-0.1,0.3-0.2,0.4c-0.1,0.1-0.3,0.1-0.4,0.2c-0.1,0.1-0.2,0.1-0.4,0.1
			c-0.3,0.1-0.7,0.1-1.1,0.1c-0.8,0-1.5-0.2-1.9-0.7c-0.5-0.5-0.7-1.1-0.7-2c0-0.7,0.2-1.4,0.6-1.9c0.4-0.6,1-0.8,1.8-0.8
			c0.8,0,1.4,0.3,1.8,0.8c0.4,0.5,0.6,1.1,0.6,1.8c0,0.1,0,0.2-0.1,0.3c-0.1,0.1-0.2,0.1-0.3,0.1h-3.5
			C153.8,60.8,154,61.2,154.3,61.5z M155.3,58.1c-0.6,0-1,0.3-1.3,0.8c-0.1,0.2-0.1,0.4-0.2,0.7h3c0-0.5-0.2-0.9-0.5-1.1
			C156,58.2,155.6,58.1,155.3,58.1z"/>
		<path id="Vector_37" class="st0" d="M162.9,61.9c-0.5,0.5-1.1,0.8-1.7,0.8c-0.7,0-1.2-0.2-1.7-0.7c-0.5-0.5-0.8-1.2-0.8-2
			c0-0.8,0.3-1.5,0.8-2c0.5-0.5,1-0.7,1.7-0.7c0.7,0,1.2,0.3,1.7,0.8v-2.5c0-0.1,0-0.2,0.1-0.3c0.1-0.1,0.2-0.1,0.3-0.1
			c0.1,0,0.2,0,0.3,0.1c0.1,0.1,0.1,0.2,0.1,0.3v6.6c0,0.1,0,0.2-0.1,0.3c-0.1,0.1-0.2,0.1-0.3,0.1c-0.1,0-0.2,0-0.3-0.1
			c-0.1-0.1-0.1-0.2-0.1-0.3V61.9z M162.9,59c-0.5-0.5-1-0.8-1.6-0.8c-0.8,0-1.3,0.4-1.5,1c-0.1,0.2-0.1,0.5-0.1,0.8
			c0,0.6,0.2,1,0.5,1.4c0.3,0.3,0.7,0.5,1.2,0.5c0.6,0,1.2-0.3,1.6-0.8L162.9,59L162.9,59z"/>
		<path id="Vector_38" class="st0" d="M165.8,57.7c0.6-0.2,1.2-0.4,1.8-0.4c0.7,0,1.2,0.2,1.6,0.6c0.3,0.4,0.5,0.8,0.5,1.4v2.9
			c0,0.1-0.1,0.2-0.1,0.3c-0.1,0.1-0.2,0.1-0.3,0.1c-0.1,0-0.2,0-0.3-0.1c-0.1-0.1-0.1-0.2-0.1-0.3v-0.3c-0.2,0.2-0.4,0.4-0.7,0.5
			c-0.3,0.2-0.7,0.2-1.2,0.2c-0.5,0-0.9-0.1-1.2-0.4c-0.3-0.3-0.5-0.7-0.5-1.1c0-0.5,0.2-0.9,0.6-1.2c0.4-0.3,1-0.5,1.8-0.5h1.2
			v-0.1c0-0.4-0.1-0.8-0.3-1c-0.2-0.2-0.6-0.3-1-0.3c-0.4,0-0.8,0.1-1.4,0.2c-0.1,0-0.1,0-0.2,0c-0.1,0-0.1,0-0.2-0.1
			c-0.1-0.1-0.1-0.2-0.1-0.3C165.5,57.9,165.6,57.8,165.8,57.7z M166.1,61.1c0,0.5,0.4,0.8,1.1,0.8c0.3,0,0.6-0.1,0.9-0.2
			c0.3-0.1,0.5-0.3,0.7-0.5v-0.9h-1.1c-0.5,0-0.9,0.1-1.1,0.2C166.2,60.6,166.1,60.8,166.1,61.1z"/>
		<path id="Vector_39" class="st0" d="M175.3,61.9c-0.5,0.5-1.1,0.8-1.7,0.8c-0.7,0-1.2-0.2-1.7-0.7c-0.5-0.5-0.8-1.2-0.8-2
			c0-0.8,0.3-1.5,0.8-2c0.5-0.5,1-0.7,1.7-0.7c0.7,0,1.2,0.3,1.7,0.8v-2.5c0-0.1,0-0.2,0.1-0.3c0.1-0.1,0.2-0.1,0.3-0.1
			c0.1,0,0.2,0,0.3,0.1c0.1,0.1,0.1,0.2,0.1,0.3v6.6c0,0.1,0,0.2-0.1,0.3c-0.1,0.1-0.2,0.1-0.3,0.1c-0.1,0-0.2,0-0.3-0.1
			c-0.1-0.1-0.1-0.2-0.1-0.3V61.9z M175.3,59c-0.5-0.5-1-0.8-1.6-0.8c-0.8,0-1.3,0.4-1.5,1c-0.1,0.2-0.1,0.5-0.1,0.8
			c0,0.6,0.1,1,0.5,1.4c0.3,0.3,0.7,0.5,1.2,0.5c0.6,0,1.2-0.3,1.6-0.8L175.3,59L175.3,59z"/>
		<path id="Vector_40" class="st0" d="M185.9,61.4c0.1,0,0.1,0,0.2,0c0.1,0,0.2,0,0.3,0.1c0.1,0.1,0.1,0.2,0.1,0.3
			c0,0.2-0.1,0.3-0.2,0.4c-0.3,0.2-0.7,0.3-1,0.4c-0.4,0.1-0.8,0.2-1.3,0.2c-0.5,0-1-0.1-1.4-0.2c-0.4-0.2-0.8-0.4-1.1-0.7
			c-0.7-0.7-1-1.6-1-2.7c0-1.1,0.3-2,1-2.7c0.7-0.7,1.5-1,2.6-1c0.5,0,0.9,0.1,1.3,0.2c0.4,0.1,0.6,0.2,0.8,0.3
			c0.2,0.1,0.3,0.2,0.4,0.3c0,0.1,0.1,0.1,0.1,0.2c0,0.1,0,0.2-0.1,0.3c-0.1,0.1-0.1,0.1-0.3,0.1c-0.1,0-0.2,0-0.2,0
			c-0.3-0.1-0.5-0.3-0.8-0.4c-0.3-0.1-0.6-0.1-1.1-0.1s-0.8,0.1-1.2,0.2c-0.3,0.1-0.6,0.3-0.9,0.6c-0.4,0.5-0.7,1.2-0.7,2
			c0,0.8,0.2,1.5,0.7,2c0.5,0.5,1.2,0.8,2.1,0.8c0.4,0,0.7,0,1-0.1C185.4,61.6,185.7,61.5,185.9,61.4z"/>
		<path id="Vector_41" class="st0" d="M188.9,55.8c0,0.1-0.1,0.3-0.1,0.4c-0.1,0.1-0.2,0.1-0.4,0.1h-0.1c-0.1,0-0.3-0.1-0.4-0.1
			c-0.1-0.1-0.1-0.2-0.1-0.4v0c0-0.1,0.1-0.3,0.1-0.4c0.1-0.1,0.2-0.1,0.4-0.1h0.1c0.1,0,0.3,0.1,0.4,0.1
			C188.9,55.5,188.9,55.6,188.9,55.8L188.9,55.8z M188,57.5c0.1-0.1,0.2-0.1,0.3-0.1s0.2,0,0.3,0.1c0.1,0.1,0.1,0.2,0.1,0.3v4.4
			c0,0.1,0,0.2-0.1,0.3c-0.1,0.1-0.2,0.1-0.3,0.1s-0.2,0-0.3-0.1c-0.1-0.1-0.1-0.2-0.1-0.3v-4.4C187.9,57.7,188,57.6,188,57.5z"/>
		<path id="Vector_42" class="st0" d="M194.1,57.6c0.1-0.2,0.2-0.3,0.4-0.3c0.1,0,0.2,0,0.3,0.1c0.1,0.1,0.1,0.2,0.1,0.3
			c0,0.1,0,0.2-0.1,0.3l-1.8,4.2c-0.1,0.1-0.1,0.2-0.2,0.3c-0.1,0.1-0.2,0.1-0.3,0.1h-0.1c-0.1,0-0.2,0-0.3-0.1
			c-0.1-0.1-0.2-0.2-0.2-0.3l-1.8-4.2c0-0.1-0.1-0.2-0.1-0.3c0-0.1,0-0.2,0.1-0.3c0.1-0.1,0.2-0.1,0.3-0.1c0.2,0,0.4,0.1,0.4,0.3
			l1.6,4L194.1,57.6z"/>
		<path id="Vector_43" class="st0" d="M197.2,55.8c0,0.1-0.1,0.3-0.1,0.4c-0.1,0.1-0.2,0.1-0.4,0.1h-0.1c-0.1,0-0.3-0.1-0.4-0.1
			c-0.1-0.1-0.1-0.2-0.1-0.4v0c0-0.1,0.1-0.3,0.1-0.4c0.1-0.1,0.2-0.1,0.4-0.1h0.1c0.1,0,0.3,0.1,0.4,0.1
			C197.1,55.5,197.2,55.6,197.2,55.8L197.2,55.8z M196.3,57.5c0.1-0.1,0.2-0.1,0.3-0.1c0.1,0,0.2,0,0.3,0.1c0.1,0.1,0.1,0.2,0.1,0.3
			v4.4c0,0.1,0,0.2-0.1,0.3c-0.1,0.1-0.2,0.1-0.3,0.1c-0.1,0-0.2,0-0.3-0.1c-0.1-0.1-0.1-0.2-0.1-0.3v-4.4
			C196.1,57.7,196.2,57.6,196.3,57.5z"/>
		<path id="Vector_44" class="st0" d="M199,55.3c0.1-0.1,0.2-0.1,0.3-0.1c0.1,0,0.2,0,0.3,0.1c0.1,0.1,0.1,0.2,0.1,0.3v6.6
			c0,0.1,0,0.2-0.1,0.3c-0.1,0.1-0.2,0.1-0.3,0.1c-0.1,0-0.2,0-0.3-0.1c-0.1-0.1-0.1-0.2-0.1-0.3v-6.6C198.9,55.5,199,55.3,199,55.3
			z"/>
		<path id="Vector_45" class="st1" d="M47.4,63.4c-13.2,0-23.9-10.7-23.9-23.9c0-13.2,10.7-23.9,23.9-23.9
			c13.2,0,23.9,10.7,23.9,23.9C71.2,52.7,60.5,63.4,47.4,63.4z M47.4,20.7c-10.4,0-18.9,8.5-18.9,18.9S37,58.4,47.4,58.4
			c10.4,0,18.9-8.5,18.9-18.9S57.8,20.7,47.4,20.7z"/>
		<path id="Vector_46" class="st1" d="M66.3,58.5C55.9,69,38.9,69,28.4,58.5C18,48.1,18,31.1,28.4,20.7c10.4-10.4,27.4-10.4,37.8,0
			l3.5-3.5c-12.4-12.4-32.5-12.4-44.9,0c-12.4,12.4-12.4,32.5,0,44.9s32.5,12.4,44.9,0c0,0,0,0,0,0L66.3,58.5
			C66.3,58.5,66.3,58.5,66.3,58.5z"/>
		<path id="Vector_47" class="st1" d="M82,39.6c0,19.1-15.5,34.6-34.6,34.6c-19.1,0-34.6-15.5-34.6-34.6C12.7,20.5,28.3,5,47.4,5V0
			C25.5,0,7.7,17.8,7.7,39.6c0,21.8,17.8,39.6,39.6,39.6C69.2,79.2,87,61.4,87,39.6c0,0,0,0,0,0L82,39.6L82,39.6"/>
		<path id="Vector_48" class="st1" d="M77.3,69.5C60.8,86,33.9,86,17.4,69.5C0.9,53,0.9,26.1,17.4,9.6L13.9,6
			c-18.5,18.5-18.5,48.5,0,67c18.5,18.5,48.5,18.5,67,0c18.5-18.5,18.5-48.5,0-67l-3.5,3.5C93.9,26.1,93.9,53,77.3,69.5z"/>
	</g>
</g>
</svg>
