<svg width="140" height="52" viewBox="0 0 140 52" fill="none" xmlns="http://www.w3.org/2000/svg">
<g id="Group">
<path id="Vector" d="M29.3084 48.7072L29.2823 48.0138C33.6785 47.8175 37.8785 46.3259 41.4374 43.7091C45.0748 41.0268 47.7701 37.3371 49.2224 33.0325C51.1196 27.4455 50.7271 21.453 48.1103 16.167C45.4935 10.881 40.9795 6.91656 35.3925 5.03245L35.615 4.36516C41.372 6.31469 46.0299 10.3969 48.7252 15.853C51.4206 21.3091 51.8262 27.4848 49.8766 33.2549C48.372 37.6904 45.5981 41.4979 41.843 44.2717C38.1925 46.967 33.8486 48.511 29.3084 48.7072Z" fill="#6A2978"/>
<path id="Vector_2" d="M40.3907 19.9614C39.7103 18.3652 38.7682 16.9782 37.5645 15.7876C36.3738 14.5969 34.9738 13.668 33.3776 12.9745C31.7813 12.2941 30.0935 11.9409 28.3009 11.9409C26.5084 11.9409 24.8075 12.281 23.2112 12.9745C21.6149 13.6549 20.228 14.5969 19.0374 15.7876C17.8598 16.9782 16.9178 18.3652 16.2374 19.9614C15.557 21.5577 15.2037 23.2586 15.2037 25.0511C15.2037 26.8437 15.5439 28.5446 16.2374 30.1409C16.9178 31.7371 17.8598 33.124 19.0374 34.3147C19.7963 35.0736 20.6467 35.7409 21.5888 36.3035H23.2897C21.8897 35.6624 20.6598 34.8119 19.6 33.7521C18.4878 32.6268 17.6112 31.3315 16.9701 29.8399C16.3159 28.3483 16.0019 26.7521 16.0019 25.0642C16.0019 23.3764 16.329 21.7801 16.9701 20.2885C17.6112 18.7969 18.5009 17.4885 19.6 16.3764C20.7121 15.2511 22.0075 14.3745 23.5121 13.7203C25.0037 13.0792 26.6 12.7521 28.3009 12.7521C29.9888 12.7521 31.585 13.0792 33.0897 13.7203C34.5813 14.3614 35.8897 15.2511 37.0149 16.3764C38.1402 17.5016 39.0168 18.7969 39.671 20.2885C40.3252 21.7801 40.6392 23.3764 40.6392 25.0642C40.6392 26.7521 40.3121 28.3483 39.671 29.8399C39.0299 31.3315 38.1402 32.6399 37.0149 33.7521C35.8897 34.8773 34.5813 35.7539 33.0897 36.4081C31.5981 37.0493 30.0019 37.3764 28.3009 37.3764C28.1178 37.3764 27.9346 37.3764 27.7514 37.3633V38.1483C27.9346 38.1614 28.1178 38.1614 28.3009 38.1614C30.0935 38.1614 31.7944 37.8212 33.3776 37.1278C34.9738 36.4474 36.3738 35.5053 37.5645 34.3147C38.7551 33.124 39.6972 31.7371 40.3907 30.1409C41.071 28.5446 41.4243 26.8437 41.4243 25.0511C41.4112 23.2455 41.071 21.5577 40.3907 19.9614Z" fill="#6A2978"/>
<path id="Vector_3" d="M28.314 40.0455H0.222443V38.1483C0.222443 37.5857 0.444873 37.1801 0.471041 37.1409L0.484125 37.1147C0.601882 36.9446 11.8935 20.3801 12.5869 19.1633C13.0972 18.2605 13.5421 16.2194 11.514 14.911C10.4411 14.2175 9.25048 14.1913 8.00749 14.8194C7.00001 15.3296 6.31964 16.1016 6.31964 16.1016L6.29347 16.1409L6.25422 16.167C6.1888 16.2194 5.6131 16.6119 5.07665 16.311C4.73646 16.1147 4.01684 15.6437 3.97758 15.6175L4.39627 14.9895C4.39627 14.9895 5.1159 15.4736 5.42992 15.6437C5.50842 15.6829 5.67852 15.6175 5.77011 15.5652C5.9402 15.382 6.64674 14.6493 7.65422 14.139C9.14581 13.3801 10.6112 13.4324 11.9196 14.2567C14.2486 15.7483 13.9869 18.2212 13.2411 19.5166C12.5346 20.7465 1.71403 36.6175 1.11216 37.5072C1.08599 37.5595 0.968237 37.7951 0.968237 38.1353V39.2736H28.314C36.1645 39.2736 42.5495 32.8885 42.5495 25.0381C42.5495 17.1876 36.1645 10.8025 28.314 10.8025C25.2131 10.8025 22.2561 11.7839 19.7832 13.6418L19.3252 13.0399C21.929 11.0904 25.043 10.0567 28.314 10.0567C36.5832 10.0567 43.3084 16.782 43.3084 25.0511C43.3084 33.3203 36.5832 40.0455 28.314 40.0455Z" fill="#6A2978"/>
<path id="Vector_4" d="M28.314 36.0418C22.2561 36.0418 17.3234 31.1091 17.3234 25.0511C17.3234 18.9932 22.2561 14.0605 28.314 14.0605C34.372 14.0605 39.3047 18.9932 39.3047 25.0511C39.3047 31.1091 34.372 36.0418 28.314 36.0418ZM28.314 14.8194C22.6748 14.8194 18.0822 19.4119 18.0822 25.0511C18.0822 30.6904 22.6748 35.2829 28.314 35.2829C33.9533 35.2829 38.5458 30.6904 38.5458 25.0511C38.5458 19.4119 33.9533 14.8194 28.314 14.8194Z" fill="#6A2978"/>
<path id="Vector_5" d="M5.25981 48.4848V51.8867H3.97757V51.1801C3.65047 51.6773 3.02243 51.9652 2.15888 51.9652C0.837383 51.9652 0 51.2325 0 50.225C0 49.2568 0.654206 48.4979 2.40748 48.4979H3.89906V48.4063C3.89906 47.6212 3.42804 47.1502 2.45981 47.1502C1.80561 47.1502 1.13832 47.3596 0.706542 47.7259L0.170093 46.7446C0.785047 46.2605 1.68785 46.025 2.61682 46.025C4.29159 46.025 5.25981 46.8231 5.25981 48.4848ZM3.89906 50.068V49.4007H2.49907C1.58318 49.4007 1.3215 49.7409 1.3215 50.1726C1.3215 50.6568 1.74019 50.9708 2.43364 50.9708C3.10093 50.9708 3.67664 50.6698 3.89906 50.068Z" fill="#6A2978"/>
<path id="Vector_6" d="M12.6916 48.5633V51.8867H11.3439V48.7465C11.3439 47.7128 10.8336 47.2156 9.97008 47.2156C9.00186 47.2156 8.36074 47.8044 8.36074 48.9558V51.8867H6.98691V46.0904H8.28224V46.8362C8.7271 46.2998 9.43364 46.025 10.271 46.025C11.671 46.025 12.6916 46.8231 12.6916 48.5633ZM8.62242 45.2399H7.88971C7.91588 44.3502 8.37382 43.7876 9.06728 43.7876C9.78691 43.7876 10.1533 44.5072 10.5458 44.5072C10.8467 44.5072 11.0561 44.2848 11.0822 43.8923H11.8149C11.7888 44.7427 11.3308 45.3184 10.6374 45.3184C9.91775 45.3184 9.55139 44.5988 9.15887 44.5988C8.84485 44.5857 8.63551 44.8212 8.62242 45.2399Z" fill="#6A2978"/>
<path id="Vector_7" d="M14 48.982C14 47.2418 15.2953 46.025 17.0748 46.025C18.8804 46.025 20.1626 47.2549 20.1626 48.982C20.1626 50.7222 18.8673 51.9521 17.0748 51.9521C15.2953 51.9521 14 50.7222 14 48.982ZM18.8019 48.982C18.8019 47.8829 18.0692 47.1764 17.0748 47.1764C16.0935 47.1764 15.3607 47.8829 15.3607 48.982C15.3607 50.0941 16.0935 50.7876 17.0748 50.7876C18.0692 50.8007 18.8019 50.0941 18.8019 48.982Z" fill="#6A2978"/>
<path id="Vector_8" d="M20.8037 51.311L21.3271 50.2773C21.8374 50.6175 22.6224 50.853 23.3421 50.853C24.1925 50.853 24.5589 50.6175 24.5589 50.2119C24.5589 49.1128 20.9869 50.1465 20.9869 47.8437C20.9869 46.7446 21.9682 46.0381 23.5383 46.0381C24.3103 46.0381 25.1869 46.2212 25.7103 46.5353L25.1869 47.5689C24.6374 47.2418 24.0748 47.1371 23.5252 47.1371C22.7009 47.1371 22.3084 47.4119 22.3084 47.7913C22.3084 48.9558 25.8804 47.9222 25.8804 50.1857C25.8804 51.2717 24.886 51.9782 23.2505 51.9782C22.2953 51.9521 21.3271 51.6773 20.8037 51.311Z" fill="#6A2978"/>
<path id="Vector_9" d="M65.7869 20.9427C65.7869 22.853 64.3738 24.0306 62.0972 24.0306H60.1346V26.5296H58.5252V17.8549H62.0972C64.3738 17.8549 65.7869 19.0194 65.7869 20.9427ZM64.1645 20.9427C64.1645 19.8567 63.4318 19.2156 62.0187 19.2156H60.1346V22.6567H62.0187C63.4318 22.6698 64.1645 22.0287 64.1645 20.9427Z" fill="#6A2978"/>
<path id="Vector_10" d="M73.4149 23.7166H68.2206C68.4037 24.6848 69.2149 25.2997 70.3663 25.2997C71.1121 25.2997 71.6878 25.0642 72.1589 24.5801L72.9832 25.5353C72.3944 26.2418 71.4654 26.6082 70.314 26.6082C68.1028 26.6082 66.6635 25.182 66.6635 23.2194C66.6635 21.2437 68.1159 19.8437 70.0785 19.8437C72.0149 19.8437 73.428 21.1913 73.428 23.2586C73.4411 23.3764 73.428 23.5726 73.4149 23.7166ZM68.2075 22.6829H71.9626C71.8449 21.7278 71.1121 21.0736 70.0916 21.0736C69.0972 21.0736 68.3645 21.7278 68.2075 22.6829Z" fill="#6A2978"/>
<path id="Vector_11" d="M81.4355 22.7353V26.5296H79.8916V22.9315C79.8916 21.7539 79.3159 21.1782 78.3215 21.1782C77.2224 21.1782 76.4766 21.8455 76.4766 23.1801V26.5296H74.9327V19.9091H76.4112V20.7596C76.9215 20.1577 77.7196 19.8306 78.6879 19.8306C80.2579 19.8437 81.4355 20.7465 81.4355 22.7353Z" fill="#6A2978"/>
<path id="Vector_12" d="M82.6523 25.8755L83.2411 24.6979C83.8299 25.0773 84.7196 25.3521 85.5439 25.3521C86.5252 25.3521 86.9308 25.0773 86.9308 24.6194C86.9308 23.3502 82.8486 24.5409 82.8486 21.911C82.8486 20.6549 83.9738 19.8437 85.7533 19.8437C86.6299 19.8437 87.6374 20.053 88.2262 20.4194L87.6374 21.5969C87.0093 21.2306 86.3682 21.0997 85.7402 21.0997C84.7981 21.0997 84.3533 21.4138 84.3533 21.8455C84.3533 23.1801 88.4355 21.9895 88.4355 24.5801C88.4355 25.8231 87.2972 26.6212 85.4393 26.6212C84.3533 26.6212 83.2542 26.2941 82.6523 25.8755Z" fill="#6A2978"/>
<path id="Vector_13" d="M95.3308 22.6567V26.5296H93.8654V25.7184C93.4991 26.2941 92.7794 26.6082 91.785 26.6082C90.2673 26.6082 89.3252 25.7838 89.3252 24.6194C89.3252 23.5203 90.071 22.6437 92.0729 22.6437H93.7869V22.5521C93.7869 21.6493 93.2374 21.1128 92.1383 21.1128C91.3925 21.1128 90.6336 21.3614 90.1364 21.767L89.5346 20.6418C90.2411 20.0923 91.2748 19.8306 92.3346 19.8306C94.2318 19.8437 95.3308 20.7465 95.3308 22.6567ZM93.7869 24.4624V23.6904H92.1906C91.1439 23.6904 90.8561 24.0829 90.8561 24.567C90.8561 25.1296 91.3271 25.4829 92.1252 25.4829C92.8579 25.4829 93.5252 25.1427 93.7869 24.4624Z" fill="#6A2978"/>
<path id="Vector_14" d="M103.822 22.7353V26.5296H102.279V22.9315C102.279 21.7539 101.703 21.1782 100.708 21.1782C99.6094 21.1782 98.8636 21.8455 98.8636 23.1801V26.5296H97.3196V19.9091H98.7851V20.7596C99.2953 20.1577 100.093 19.8306 101.062 19.8306C102.645 19.8437 103.822 20.7465 103.822 22.7353Z" fill="#6A2978"/>
<path id="Vector_15" d="M112.34 17.3446V26.5296H110.849V25.6792C110.325 26.3072 109.566 26.6212 108.65 26.6212C106.727 26.6212 105.301 25.2866 105.301 23.2324C105.301 21.1782 106.727 19.8567 108.65 19.8567C109.501 19.8567 110.26 20.1446 110.783 20.7465V17.3446H112.34ZM110.809 23.2324C110.809 21.9633 109.959 21.1652 108.847 21.1652C107.735 21.1652 106.871 21.9764 106.871 23.2324C106.871 24.4885 107.721 25.2997 108.847 25.2997C109.959 25.2997 110.809 24.4885 110.809 23.2324Z" fill="#6A2978"/>
<path id="Vector_16" d="M113.819 23.2324C113.819 21.2437 115.31 19.8568 117.338 19.8568C119.393 19.8568 120.871 21.2567 120.871 23.2324C120.871 25.2212 119.393 26.6212 117.338 26.6212C115.31 26.6212 113.819 25.2082 113.819 23.2324ZM119.314 23.2324C119.314 21.9633 118.477 21.1652 117.351 21.1652C116.239 21.1652 115.389 21.9764 115.389 23.2324C115.389 24.4885 116.226 25.2997 117.351 25.2997C118.464 25.2997 119.314 24.4885 119.314 23.2324Z" fill="#6A2978"/>
<path id="Vector_17" d="M131.966 23.7166H126.785C126.968 24.6848 127.779 25.2997 128.931 25.2997C129.677 25.2997 130.252 25.0642 130.723 24.5801L131.548 25.5353C130.959 26.2418 130.017 26.6082 128.878 26.6082C126.667 26.6082 125.228 25.182 125.228 23.2194C125.228 21.2437 126.68 19.8437 128.643 19.8437C130.579 19.8437 131.993 21.1913 131.993 23.2586C131.993 23.3764 131.979 23.5726 131.966 23.7166ZM126.772 22.6829H130.527C130.396 21.7278 129.677 21.0736 128.656 21.0736C127.649 21.0736 126.916 21.7278 126.772 22.6829Z" fill="#6A2978"/>
<path id="Vector_18" d="M140 22.7353V26.5296H138.456V22.9315C138.456 21.7539 137.88 21.1782 136.886 21.1782C135.787 21.1782 135.041 21.8455 135.041 23.1801V26.5296H133.497V19.9091H134.976V20.7596C135.486 20.1577 136.284 19.8306 137.252 19.8306C138.822 19.8437 140 20.7465 140 22.7353Z" fill="#6A2978"/>
<path id="Vector_19" d="M62.3458 39.3782C61.9795 39.6792 61.4168 39.8231 60.8542 39.8231C59.4019 39.8231 58.5776 39.0511 58.5776 37.5988V34.4194H57.4916V33.1764H58.5776V31.6717H60.1215V33.1764H61.8879V34.4194H60.1215V37.5595C60.1215 38.2007 60.4486 38.5539 61.0374 38.5539C61.3645 38.5539 61.6654 38.4623 61.901 38.2792L62.3458 39.3782Z" fill="#6A2978"/>
<path id="Vector_20" d="M70.0262 33.1241V39.7446H68.5608V38.9072C68.0636 39.5091 67.2785 39.8362 66.4281 39.8362C64.7271 39.8362 63.5757 38.9072 63.5757 36.9184V33.1371H65.1196V36.7091C65.1196 37.9128 65.6953 38.4755 66.6636 38.4755C67.7365 38.4755 68.4692 37.8082 68.4692 36.4867V33.1371H70.0262V33.1241Z" fill="#6A2978"/>
<path id="Vector_21" d="M81.9589 30.5334V39.7184H80.4673V38.868C79.9439 39.496 79.185 39.81 78.2692 39.81C76.3458 39.81 74.9196 38.4754 74.9196 36.4212C74.9196 34.367 76.3458 33.0455 78.2692 33.0455C79.1196 33.0455 79.8785 33.3334 80.4019 33.9353V30.5465H81.9589V30.5334ZM80.4411 36.4212C80.4411 35.1521 79.5906 34.3539 78.4654 34.3539C77.3533 34.3539 76.4897 35.1652 76.4897 36.4212C76.4897 37.6904 77.3402 38.4885 78.4654 38.4885C79.5776 38.4885 80.4411 37.6904 80.4411 36.4212Z" fill="#6A2978"/>
<path id="Vector_22" d="M90.1888 36.9184H84.9944C85.1776 37.8867 85.9888 38.5016 87.1402 38.5016C87.886 38.5016 88.4617 38.2661 88.9327 37.782L89.757 38.7371C89.1682 39.4437 88.2392 39.81 87.0878 39.81C84.8766 39.81 83.4374 38.3838 83.4374 36.4212C83.4374 34.4586 84.8897 33.0455 86.8523 33.0455C88.7888 33.0455 90.2019 34.3932 90.2019 36.4605C90.2149 36.5913 90.2019 36.7745 90.1888 36.9184ZM84.9813 35.8979H88.7364C88.6187 34.9427 87.886 34.2885 86.8654 34.2885C85.871 34.2754 85.1383 34.9296 84.9813 35.8979Z" fill="#6A2978"/>
<path id="Vector_23" d="M90.9477 39.0642L91.5364 37.8867C92.1252 38.2661 93.015 38.5409 93.8393 38.5409C94.8206 38.5409 95.2262 38.2661 95.2262 37.8082C95.2262 36.539 91.1439 37.7297 91.1439 35.0998C91.1439 33.8437 92.2692 33.0325 94.0617 33.0325C94.9383 33.0325 95.9458 33.2418 96.5346 33.6082L95.9458 34.7857C95.3178 34.4194 94.6766 34.2885 94.0486 34.2885C93.1065 34.2885 92.6617 34.6026 92.6617 35.0343C92.6617 36.3689 96.7439 35.1783 96.7439 37.7689C96.7439 39.0119 95.6056 39.81 93.7477 39.81C92.6355 39.81 91.5364 39.496 90.9477 39.0642Z" fill="#6A2978"/>
<path id="Vector_24" d="M103.613 35.8586V39.7315H102.148V38.9334C101.781 39.496 101.062 39.8231 100.067 39.8231C98.5495 39.8231 97.6075 38.9988 97.6075 37.8343C97.6075 36.7352 98.3533 35.8586 100.355 35.8586H102.069V35.7539C102.069 34.8511 101.52 34.3147 100.421 34.3147C99.6748 34.3147 98.9028 34.5633 98.4187 34.9689L97.8168 33.8437C98.5234 33.2941 99.557 33.0194 100.617 33.0194C102.514 33.0455 103.613 33.9483 103.613 35.8586ZM102.069 37.6642V36.8923H100.473C99.4262 36.8923 99.1383 37.2848 99.1383 37.7689C99.1383 38.3315 99.6094 38.6848 100.407 38.6848C101.153 38.6848 101.807 38.3446 102.069 37.6642Z" fill="#6A2978"/>
<path id="Vector_25" d="M109.422 33.0455V34.524C109.292 34.4979 109.174 34.4848 109.069 34.4848C107.892 34.4848 107.146 35.1782 107.146 36.5259V39.7315H105.602V33.111H107.08V34.0792C107.512 33.3857 108.323 33.0455 109.422 33.0455Z" fill="#6A2978"/>
<path id="Vector_26" d="M114.564 33.0455V34.524C114.434 34.4979 114.316 34.4848 114.211 34.4848C113.034 34.4848 112.288 35.1782 112.288 36.5259V39.7315H110.744V33.111H112.222V34.0792C112.654 33.3857 113.465 33.0455 114.564 33.0455Z" fill="#6A2978"/>
<path id="Vector_27" d="M115.271 36.4212C115.271 34.4455 116.763 33.0455 118.791 33.0455C120.845 33.0455 122.323 34.4455 122.323 36.4212C122.323 38.41 120.845 39.81 118.791 39.81C116.763 39.8231 115.271 38.41 115.271 36.4212ZM120.766 36.4212C120.766 35.1521 119.929 34.3539 118.791 34.3539C117.679 34.3539 116.828 35.1652 116.828 36.4212C116.828 37.6904 117.665 38.4885 118.791 38.4885C119.916 38.4885 120.766 37.6904 120.766 36.4212Z" fill="#6A2978"/>
<path id="Vector_28" d="M125.359 30.5334H123.815V39.7184H125.359V30.5334Z" fill="#6A2978"/>
<path id="Vector_29" d="M128.931 30.5334H127.387V39.7184H128.931V30.5334Z" fill="#6A2978"/>
<path id="Vector_30" d="M130.422 36.4212C130.422 34.4455 131.914 33.0455 133.942 33.0455C135.996 33.0455 137.475 34.4455 137.475 36.4212C137.475 38.41 135.996 39.81 133.942 39.81C131.914 39.8231 130.422 38.41 130.422 36.4212ZM135.918 36.4212C135.918 35.1521 135.08 34.3539 133.942 34.3539C132.83 34.3539 131.979 35.1652 131.979 36.4212C131.979 37.6904 132.817 38.4885 133.942 38.4885C135.067 38.4885 135.918 37.6904 135.918 36.4212Z" fill="#6A2978"/>
<path id="Vector_31" d="M51.9178 14.767C48.9346 8.52591 43.6879 3.80255 37.1589 1.49974C30.6299 -0.816146 23.5907 -0.436707 17.3365 2.54647L17.6636 3.22685C23.7346 0.322173 30.5645 -0.0311004 36.9103 2.20628C43.2561 4.44367 48.3458 9.0231 51.2374 15.0941C54.1421 21.1652 54.4953 27.9951 52.2579 34.3409C50.0206 40.6867 45.4411 45.7764 39.3701 48.668C36.1645 50.1988 32.7495 51.0231 29.2953 51.1278V51.8867C32.8542 51.782 36.3869 50.9315 39.6841 49.3483C45.9383 46.3652 50.6486 41.1184 52.9645 34.5895C55.2804 28.0605 54.9009 21.0212 51.9178 14.767Z" fill="#6A2978"/>
<path id="Vector_32" d="M3.44112 37.3633L14.4318 20.8773L14.772 20.3932H14.7327C15.2561 19.5427 15.5178 18.6268 15.5178 17.6325C15.5178 16.939 15.3869 16.2717 15.1252 15.6306C14.8636 14.9895 14.5103 14.4268 14.0654 13.9296C13.6206 13.4324 13.0972 13.0268 12.4953 12.7128C11.8935 12.3988 11.2523 12.2025 10.5458 12.1371C10.415 12.111 10.2972 12.0979 10.1925 12.0979H9.8H9.23738C8.24299 12.1502 7.3271 12.3857 6.48972 12.8306C5.86168 13.1577 5.32523 13.5764 4.90654 14.0736L5.53458 14.5446C5.9271 14.1128 6.41121 13.7596 7.01308 13.4717C7.8243 13.0792 8.70093 12.896 9.64299 12.896H9.98318H10.4673C11.0692 12.9745 11.6187 13.1446 12.1421 13.3932C12.6654 13.6549 13.1234 13.9951 13.5028 14.4268C13.8953 14.8455 14.1832 15.3427 14.4056 15.8792C14.615 16.4287 14.7196 17.0175 14.7196 17.6325C14.7196 18.5483 14.4579 19.4119 13.9346 20.21L2.31589 37.625V38.1483H28.0523V37.3633H3.44112Z" fill="#6A2978"/>
</g>
</svg>
